<?xml version="1.0" encoding="utf-8"?>
<!-- Generator: Adobe Illustrator 19.0.0, SVG Export Plug-In . SVG Version: 6.00 Build 0)  -->
<svg version="1.1" id="图层_1" xmlns="http://www.w3.org/2000/svg" xmlns:xlink="http://www.w3.org/1999/xlink" x="0px" y="0px"
	 viewBox="0 0 1024 1024" style="enable-background:new 0 0 1024 1024;" xml:space="preserve">
<style type="text/css">
	.st0{fill:#D1C19B;}
	.st1{fill:#2181FF;}
</style>
<g id="XMLID_10_">
	<path id="XMLID_21_" class="st0" d="M465.5,437.7h8.8c4.4-28.2,20.8-49.1,40.4-49.1c19.6,0,36,21,40.4,49.1h7.8
		c4.4-28.2,20.8-49.1,40.4-49.1c0.3,0,0.5,0.1,0.7,0.1L514.7,62l-91.6,326.8c0.6,0,1.3-0.2,1.9-0.2
		C444.6,388.6,461.1,409.6,465.5,437.7z"/>
	<path id="XMLID_20_" class="st1" d="M604.1,388.7c-0.3,0-0.5-0.1-0.7-0.1c-19.6,0-46.4,21-50.9,49.1h2.6
		c-4.4-28.2-20.8-49.1-40.4-49.1c-19.6,0-36,21-40.4,49.1h1.6c-4.4-28.2-31.2-49.1-50.9-49.1c-0.7,0-1.3,0.1-1.9,0.2l-14.3,49v523
		H617v-523L604.1,388.7z"/>
	<polygon id="XMLID_13_" class="st1" points="476.7,197.3 514.7,62 551.7,197.3 	"/>
</g>
</svg>
