<?xml version="1.0" encoding="utf-8"?>
<!-- Generator: Adobe Illustrator 19.0.0, SVG Export Plug-In . SVG Version: 6.00 Build 0)  -->
<svg version="1.1" id="图层_1" xmlns="http://www.w3.org/2000/svg" xmlns:xlink="http://www.w3.org/1999/xlink" x="0px" y="0px"
	 viewBox="545.3 -28.71 355.7 894.8" enable-background="new 545.3 -28.71 355.7 894.8" xml:space="preserve">
<g id="XMLID_92_">
	<path id="XMLID_93_" fill="#949393" d="M642.2,612.99h15.1c7.5-48.1,35.5-83.9,69.1-83.9c33.5,0,61.5,35.8,69.1,83.9h13.3
		c7.5-48.1,35.5-83.9,69.1-83.9c0.4,0,0.8,0.1,1.3,0.1L726.3-28.71l-156.4,558c1.1-0.1,2.2-0.3,3.3-0.3
		C606.7,529.09,634.7,564.89,642.2,612.99z"/>
	<path id="XMLID_94_" fill="#535252" d="M879,529.19c-0.4,0-0.8-0.1-1.3-0.1c-33.5,0-79.3,35.8-86.8,83.9h4.5
		c-7.5-48.1-35.5-83.9-69.1-83.9c-33.5,0-61.5,35.8-69.1,83.9h2.7c-7.5-48.1-53.3-83.9-86.8-83.9c-1.1,0-2.2,0.2-3.3,0.3l-24.5,83.6
		v253.1H901v-253.1L879,529.19z"/>
	<polygon id="XMLID_95_" fill="#535252" points="666.7,184.69 726.3,-28.71 784.7,184.69 	"/>
</g>
</svg>
